<mxfile host="Electron" modified="2024-03-06T16:29:26.377Z" agent="Mozilla/5.0 (X11; Linux x86_64) AppleWebKit/537.36 (KHTML, like Gecko) draw.io/23.1.5 Chrome/120.0.6099.109 Electron/28.1.0 Safari/537.36" etag="XGtc7U7UglUs9B34Cm2p" version="23.1.5" type="device">
  <diagram name="Page-1" id="KSR29K5ceXbTsIlr4N3q">
    <mxGraphModel dx="2284" dy="1938" grid="1" gridSize="10" guides="1" tooltips="1" connect="1" arrows="1" fold="1" page="1" pageScale="1" pageWidth="850" pageHeight="1100" math="0" shadow="0">
      <root>
        <mxCell id="0" />
        <mxCell id="1" parent="0" />
        <mxCell id="YmixC46Ueg2TZElZpEpm-33" style="edgeStyle=orthogonalEdgeStyle;rounded=0;orthogonalLoop=1;jettySize=auto;html=1;entryX=1;entryY=0.25;entryDx=0;entryDy=0;" parent="1" source="YmixC46Ueg2TZElZpEpm-1" target="YmixC46Ueg2TZElZpEpm-16" edge="1">
          <mxGeometry relative="1" as="geometry" />
        </mxCell>
        <mxCell id="YmixC46Ueg2TZElZpEpm-49" style="edgeStyle=orthogonalEdgeStyle;rounded=0;orthogonalLoop=1;jettySize=auto;html=1;exitX=0.5;exitY=1;exitDx=0;exitDy=0;" parent="1" source="YmixC46Ueg2TZElZpEpm-1" target="YmixC46Ueg2TZElZpEpm-5" edge="1">
          <mxGeometry relative="1" as="geometry" />
        </mxCell>
        <mxCell id="DVLjblLAdQPhg2chf9vm-1" style="edgeStyle=orthogonalEdgeStyle;rounded=0;orthogonalLoop=1;jettySize=auto;html=1;exitX=1;exitY=0;exitDx=0;exitDy=0;" parent="1" source="YmixC46Ueg2TZElZpEpm-1" target="DVLjblLAdQPhg2chf9vm-2" edge="1">
          <mxGeometry relative="1" as="geometry">
            <mxPoint x="990" y="210" as="targetPoint" />
          </mxGeometry>
        </mxCell>
        <mxCell id="YmixC46Ueg2TZElZpEpm-1" value="Main page, home page, financial data, weather, etc.&amp;nbsp;" style="rounded=0;whiteSpace=wrap;html=1;" parent="1" vertex="1">
          <mxGeometry x="310" y="460" width="150" height="80" as="geometry" />
        </mxCell>
        <mxCell id="YmixC46Ueg2TZElZpEpm-6" style="edgeStyle=orthogonalEdgeStyle;rounded=0;orthogonalLoop=1;jettySize=auto;html=1;" parent="1" source="YmixC46Ueg2TZElZpEpm-5" target="YmixC46Ueg2TZElZpEpm-7" edge="1">
          <mxGeometry relative="1" as="geometry">
            <mxPoint x="780" y="950" as="targetPoint" />
          </mxGeometry>
        </mxCell>
        <mxCell id="YmixC46Ueg2TZElZpEpm-34" style="edgeStyle=orthogonalEdgeStyle;rounded=0;orthogonalLoop=1;jettySize=auto;html=1;exitX=0;exitY=0.5;exitDx=0;exitDy=0;" parent="1" source="YmixC46Ueg2TZElZpEpm-5" target="YmixC46Ueg2TZElZpEpm-35" edge="1">
          <mxGeometry relative="1" as="geometry">
            <mxPoint x="400" y="1290" as="targetPoint" />
          </mxGeometry>
        </mxCell>
        <mxCell id="YmixC46Ueg2TZElZpEpm-5" value="File storage" style="rounded=0;whiteSpace=wrap;html=1;" parent="1" vertex="1">
          <mxGeometry x="470" y="1290" width="120" height="60" as="geometry" />
        </mxCell>
        <mxCell id="YmixC46Ueg2TZElZpEpm-8" style="edgeStyle=orthogonalEdgeStyle;rounded=0;orthogonalLoop=1;jettySize=auto;html=1;exitX=-0.032;exitY=0.551;exitDx=0;exitDy=0;exitPerimeter=0;" parent="1" source="YmixC46Ueg2TZElZpEpm-7" target="YmixC46Ueg2TZElZpEpm-9" edge="1">
          <mxGeometry relative="1" as="geometry">
            <mxPoint x="820" y="1010" as="targetPoint" />
            <mxPoint x="1125" y="950" as="sourcePoint" />
          </mxGeometry>
        </mxCell>
        <mxCell id="YmixC46Ueg2TZElZpEpm-11" style="edgeStyle=orthogonalEdgeStyle;rounded=0;orthogonalLoop=1;jettySize=auto;html=1;exitX=1;exitY=0.5;exitDx=0;exitDy=0;" parent="1" source="YmixC46Ueg2TZElZpEpm-7" target="YmixC46Ueg2TZElZpEpm-12" edge="1">
          <mxGeometry relative="1" as="geometry">
            <mxPoint x="1440" y="1020" as="targetPoint" />
          </mxGeometry>
        </mxCell>
        <mxCell id="YmixC46Ueg2TZElZpEpm-7" value="Pictures storage (select folders from the files storage)" style="rounded=0;whiteSpace=wrap;html=1;" parent="1" vertex="1">
          <mxGeometry x="1220" y="940" width="120" height="60" as="geometry" />
        </mxCell>
        <mxCell id="YmixC46Ueg2TZElZpEpm-9" value="Advanced search (location, time) (maybe AI, with persons and objects)" style="rounded=0;whiteSpace=wrap;html=1;" parent="1" vertex="1">
          <mxGeometry x="900" y="1060" width="150" height="100" as="geometry" />
        </mxCell>
        <mxCell id="YmixC46Ueg2TZElZpEpm-12" value="Create albums" style="rounded=0;whiteSpace=wrap;html=1;" parent="1" vertex="1">
          <mxGeometry x="1420" y="990" width="120" height="60" as="geometry" />
        </mxCell>
        <mxCell id="YmixC46Ueg2TZElZpEpm-37" style="edgeStyle=orthogonalEdgeStyle;rounded=0;orthogonalLoop=1;jettySize=auto;html=1;entryX=0.434;entryY=-0.041;entryDx=0;entryDy=0;entryPerimeter=0;" parent="1" source="YmixC46Ueg2TZElZpEpm-16" target="YmixC46Ueg2TZElZpEpm-38" edge="1">
          <mxGeometry relative="1" as="geometry">
            <mxPoint x="100" y="950.0000000000002" as="targetPoint" />
            <Array as="points">
              <mxPoint x="-90" y="520" />
              <mxPoint x="-90" y="948" />
            </Array>
          </mxGeometry>
        </mxCell>
        <mxCell id="YmixC46Ueg2TZElZpEpm-16" value="Ai ChatBot" style="rounded=0;whiteSpace=wrap;html=1;" parent="1" vertex="1">
          <mxGeometry x="-380" y="490" width="120" height="60" as="geometry" />
        </mxCell>
        <mxCell id="YmixC46Ueg2TZElZpEpm-20" style="edgeStyle=orthogonalEdgeStyle;rounded=0;orthogonalLoop=1;jettySize=auto;html=1;exitX=1;exitY=0.5;exitDx=0;exitDy=0;entryX=0.617;entryY=0.033;entryDx=0;entryDy=0;entryPerimeter=0;" parent="1" source="YmixC46Ueg2TZElZpEpm-1" target="YmixC46Ueg2TZElZpEpm-7" edge="1">
          <mxGeometry relative="1" as="geometry" />
        </mxCell>
        <mxCell id="YmixC46Ueg2TZElZpEpm-23" style="edgeStyle=orthogonalEdgeStyle;rounded=0;orthogonalLoop=1;jettySize=auto;html=1;" parent="1" source="YmixC46Ueg2TZElZpEpm-22" target="YmixC46Ueg2TZElZpEpm-24" edge="1">
          <mxGeometry relative="1" as="geometry">
            <mxPoint x="-30" y="-390" as="targetPoint" />
          </mxGeometry>
        </mxCell>
        <mxCell id="YmixC46Ueg2TZElZpEpm-27" style="edgeStyle=orthogonalEdgeStyle;rounded=0;orthogonalLoop=1;jettySize=auto;html=1;exitX=0.191;exitY=-0.026;exitDx=0;exitDy=0;exitPerimeter=0;" parent="1" source="YmixC46Ueg2TZElZpEpm-22" target="YmixC46Ueg2TZElZpEpm-28" edge="1">
          <mxGeometry relative="1" as="geometry">
            <mxPoint x="90" y="-460" as="targetPoint" />
          </mxGeometry>
        </mxCell>
        <mxCell id="YmixC46Ueg2TZElZpEpm-29" style="edgeStyle=orthogonalEdgeStyle;rounded=0;orthogonalLoop=1;jettySize=auto;html=1;exitX=0.5;exitY=0;exitDx=0;exitDy=0;" parent="1" source="YmixC46Ueg2TZElZpEpm-22" target="YmixC46Ueg2TZElZpEpm-30" edge="1">
          <mxGeometry relative="1" as="geometry">
            <mxPoint x="250" y="-490" as="targetPoint" />
          </mxGeometry>
        </mxCell>
        <mxCell id="YmixC46Ueg2TZElZpEpm-31" style="edgeStyle=orthogonalEdgeStyle;rounded=0;orthogonalLoop=1;jettySize=auto;html=1;exitX=1;exitY=0.5;exitDx=0;exitDy=0;" parent="1" source="YmixC46Ueg2TZElZpEpm-22" target="YmixC46Ueg2TZElZpEpm-32" edge="1">
          <mxGeometry relative="1" as="geometry">
            <mxPoint x="400" y="-380" as="targetPoint" />
          </mxGeometry>
        </mxCell>
        <mxCell id="YmixC46Ueg2TZElZpEpm-40" style="edgeStyle=orthogonalEdgeStyle;rounded=0;orthogonalLoop=1;jettySize=auto;html=1;" parent="1" target="YmixC46Ueg2TZElZpEpm-41" edge="1">
          <mxGeometry relative="1" as="geometry">
            <mxPoint x="560" y="-215" as="targetPoint" />
            <mxPoint x="250" y="-320" as="sourcePoint" />
          </mxGeometry>
        </mxCell>
        <mxCell id="YmixC46Ueg2TZElZpEpm-42" style="edgeStyle=orthogonalEdgeStyle;rounded=0;orthogonalLoop=1;jettySize=auto;html=1;" parent="1" source="YmixC46Ueg2TZElZpEpm-22" target="YmixC46Ueg2TZElZpEpm-43" edge="1">
          <mxGeometry relative="1" as="geometry">
            <mxPoint x="-70" y="-480" as="targetPoint" />
            <Array as="points">
              <mxPoint x="150" y="-390" />
              <mxPoint x="-70" y="-390" />
            </Array>
          </mxGeometry>
        </mxCell>
        <mxCell id="YmixC46Ueg2TZElZpEpm-44" style="edgeStyle=orthogonalEdgeStyle;rounded=0;orthogonalLoop=1;jettySize=auto;html=1;exitX=0;exitY=0.75;exitDx=0;exitDy=0;" parent="1" source="YmixC46Ueg2TZElZpEpm-22" target="YmixC46Ueg2TZElZpEpm-45" edge="1">
          <mxGeometry relative="1" as="geometry">
            <mxPoint x="9.999999999999773" y="-190" as="targetPoint" />
          </mxGeometry>
        </mxCell>
        <mxCell id="YmixC46Ueg2TZElZpEpm-22" value="Personal finance app" style="rounded=0;whiteSpace=wrap;html=1;" parent="1" vertex="1">
          <mxGeometry x="140" y="-380" width="110" height="70" as="geometry" />
        </mxCell>
        <mxCell id="YmixC46Ueg2TZElZpEpm-24" value="Multi-currencies/crypto/stocks" style="rounded=0;whiteSpace=wrap;html=1;" parent="1" vertex="1">
          <mxGeometry x="-320" y="-410" width="160" height="80" as="geometry" />
        </mxCell>
        <mxCell id="YmixC46Ueg2TZElZpEpm-28" value="Diferent accounts" style="rounded=0;whiteSpace=wrap;html=1;" parent="1" vertex="1">
          <mxGeometry x="60" y="-520" width="120" height="60" as="geometry" />
        </mxCell>
        <mxCell id="YmixC46Ueg2TZElZpEpm-30" value="Diferent categories with diferent budgets" style="rounded=0;whiteSpace=wrap;html=1;" parent="1" vertex="1">
          <mxGeometry x="190" y="-520" width="120" height="60" as="geometry" />
        </mxCell>
        <mxCell id="YmixC46Ueg2TZElZpEpm-32" value="Recuring payments/expenses" style="rounded=0;whiteSpace=wrap;html=1;" parent="1" vertex="1">
          <mxGeometry x="310" y="-440" width="120" height="60" as="geometry" />
        </mxCell>
        <mxCell id="YmixC46Ueg2TZElZpEpm-39" style="edgeStyle=orthogonalEdgeStyle;rounded=0;orthogonalLoop=1;jettySize=auto;html=1;entryX=1.013;entryY=0.71;entryDx=0;entryDy=0;entryPerimeter=0;" parent="1" source="YmixC46Ueg2TZElZpEpm-35" target="YmixC46Ueg2TZElZpEpm-38" edge="1">
          <mxGeometry relative="1" as="geometry">
            <mxPoint x="180" y="1250.0000000000002" as="targetPoint" />
          </mxGeometry>
        </mxCell>
        <mxCell id="YmixC46Ueg2TZElZpEpm-35" value="Take notes and write things down" style="rounded=0;whiteSpace=wrap;html=1;" parent="1" vertex="1">
          <mxGeometry x="250" y="1260" width="120" height="60" as="geometry" />
        </mxCell>
        <mxCell id="YmixC46Ueg2TZElZpEpm-38" value="Access to certain files" style="rounded=0;whiteSpace=wrap;html=1;" parent="1" vertex="1">
          <mxGeometry x="60" y="1220" width="120" height="60" as="geometry" />
        </mxCell>
        <mxCell id="YmixC46Ueg2TZElZpEpm-41" value="Calculate the future" style="rounded=0;whiteSpace=wrap;html=1;" parent="1" vertex="1">
          <mxGeometry x="500" y="-245" width="120" height="60" as="geometry" />
        </mxCell>
        <mxCell id="YmixC46Ueg2TZElZpEpm-43" value="Add houses/other goods and their prices" style="rounded=0;whiteSpace=wrap;html=1;" parent="1" vertex="1">
          <mxGeometry x="-130" y="-510" width="120" height="60" as="geometry" />
        </mxCell>
        <mxCell id="YmixC46Ueg2TZElZpEpm-45" value="Add a lot of diferent ways to know how much money you have (i.e. excluding spare accounts for one page, or only currencies, or only stocks/crypto, or only crypto and stocks and add your own ways)" style="rounded=0;whiteSpace=wrap;html=1;" parent="1" vertex="1">
          <mxGeometry x="-290" y="-250" width="330" height="150" as="geometry" />
        </mxCell>
        <mxCell id="YmixC46Ueg2TZElZpEpm-47" style="edgeStyle=orthogonalEdgeStyle;rounded=0;orthogonalLoop=1;jettySize=auto;html=1;exitX=0.5;exitY=0;exitDx=0;exitDy=0;entryX=0.671;entryY=1.063;entryDx=0;entryDy=0;entryPerimeter=0;" parent="1" source="YmixC46Ueg2TZElZpEpm-1" target="YmixC46Ueg2TZElZpEpm-22" edge="1">
          <mxGeometry relative="1" as="geometry" />
        </mxCell>
        <mxCell id="DVLjblLAdQPhg2chf9vm-6" style="edgeStyle=orthogonalEdgeStyle;rounded=0;orthogonalLoop=1;jettySize=auto;html=1;" parent="1" source="DVLjblLAdQPhg2chf9vm-2" target="DVLjblLAdQPhg2chf9vm-7" edge="1">
          <mxGeometry relative="1" as="geometry">
            <mxPoint x="1100" y="100" as="targetPoint" />
          </mxGeometry>
        </mxCell>
        <mxCell id="DVLjblLAdQPhg2chf9vm-2" value="Calendar" style="rounded=0;whiteSpace=wrap;html=1;" parent="1" vertex="1">
          <mxGeometry x="930" y="180" width="120" height="60" as="geometry" />
        </mxCell>
        <mxCell id="DVLjblLAdQPhg2chf9vm-7" value="Notifications" style="rounded=0;whiteSpace=wrap;html=1;" parent="1" vertex="1">
          <mxGeometry x="1040" y="70" width="120" height="60" as="geometry" />
        </mxCell>
      </root>
    </mxGraphModel>
  </diagram>
</mxfile>
